<mxfile host="app.diagrams.net" agent="Mozilla/5.0 (Windows NT 10.0; Win64; x64) AppleWebKit/537.36 (KHTML, like Gecko) Chrome/133.0.0.0 Safari/537.36" version="26.0.16">
  <diagram name="Lapa-1" id="hHgqHqHhpDTwH6vGqId6">
    <mxGraphModel dx="1434" dy="738" grid="1" gridSize="10" guides="1" tooltips="1" connect="1" arrows="1" fold="1" page="1" pageScale="1" pageWidth="827" pageHeight="1169" math="0" shadow="0">
      <root>
        <mxCell id="0" />
        <mxCell id="1" parent="0" />
        <mxCell id="xHD_Jp1_6qervCOdZ8cf-21" value="" style="endArrow=classic;html=1;rounded=0;" edge="1" parent="1">
          <mxGeometry width="50" height="50" relative="1" as="geometry">
            <mxPoint x="450" y="440" as="sourcePoint" />
            <mxPoint x="400" y="490" as="targetPoint" />
          </mxGeometry>
        </mxCell>
        <mxCell id="xHD_Jp1_6qervCOdZ8cf-2" style="edgeStyle=orthogonalEdgeStyle;rounded=0;orthogonalLoop=1;jettySize=auto;html=1;" edge="1" parent="1" source="xHD_Jp1_6qervCOdZ8cf-1">
          <mxGeometry relative="1" as="geometry">
            <mxPoint x="440" y="240" as="targetPoint" />
          </mxGeometry>
        </mxCell>
        <mxCell id="xHD_Jp1_6qervCOdZ8cf-3" style="edgeStyle=orthogonalEdgeStyle;rounded=0;orthogonalLoop=1;jettySize=auto;html=1;" edge="1" parent="1" source="xHD_Jp1_6qervCOdZ8cf-1">
          <mxGeometry relative="1" as="geometry">
            <mxPoint x="640" y="240" as="targetPoint" />
          </mxGeometry>
        </mxCell>
        <mxCell id="xHD_Jp1_6qervCOdZ8cf-4" style="edgeStyle=orthogonalEdgeStyle;rounded=0;orthogonalLoop=1;jettySize=auto;html=1;" edge="1" parent="1" source="xHD_Jp1_6qervCOdZ8cf-1" target="xHD_Jp1_6qervCOdZ8cf-5">
          <mxGeometry relative="1" as="geometry">
            <mxPoint x="240" y="240" as="targetPoint" />
          </mxGeometry>
        </mxCell>
        <mxCell id="xHD_Jp1_6qervCOdZ8cf-1" value="Load Balancer" style="rounded=1;whiteSpace=wrap;html=1;" vertex="1" parent="1">
          <mxGeometry x="320" y="120" width="240" height="40" as="geometry" />
        </mxCell>
        <mxCell id="xHD_Jp1_6qervCOdZ8cf-16" style="edgeStyle=orthogonalEdgeStyle;rounded=0;orthogonalLoop=1;jettySize=auto;html=1;entryX=0;entryY=0.5;entryDx=0;entryDy=0;" edge="1" parent="1" source="xHD_Jp1_6qervCOdZ8cf-5" target="xHD_Jp1_6qervCOdZ8cf-8">
          <mxGeometry relative="1" as="geometry" />
        </mxCell>
        <mxCell id="xHD_Jp1_6qervCOdZ8cf-5" value="Server 1" style="rounded=0;whiteSpace=wrap;html=1;" vertex="1" parent="1">
          <mxGeometry x="180" y="240" width="120" height="60" as="geometry" />
        </mxCell>
        <mxCell id="xHD_Jp1_6qervCOdZ8cf-14" style="edgeStyle=orthogonalEdgeStyle;rounded=0;orthogonalLoop=1;jettySize=auto;html=1;entryX=0.5;entryY=0;entryDx=0;entryDy=0;" edge="1" parent="1" source="xHD_Jp1_6qervCOdZ8cf-6" target="xHD_Jp1_6qervCOdZ8cf-8">
          <mxGeometry relative="1" as="geometry" />
        </mxCell>
        <mxCell id="xHD_Jp1_6qervCOdZ8cf-6" value="Server 2" style="rounded=0;whiteSpace=wrap;html=1;" vertex="1" parent="1">
          <mxGeometry x="380" y="240" width="120" height="60" as="geometry" />
        </mxCell>
        <mxCell id="xHD_Jp1_6qervCOdZ8cf-15" style="edgeStyle=orthogonalEdgeStyle;rounded=0;orthogonalLoop=1;jettySize=auto;html=1;entryX=1;entryY=0.25;entryDx=0;entryDy=0;" edge="1" parent="1" source="xHD_Jp1_6qervCOdZ8cf-7" target="xHD_Jp1_6qervCOdZ8cf-8">
          <mxGeometry relative="1" as="geometry" />
        </mxCell>
        <mxCell id="xHD_Jp1_6qervCOdZ8cf-7" value="Server 3" style="rounded=0;whiteSpace=wrap;html=1;" vertex="1" parent="1">
          <mxGeometry x="580" y="240" width="120" height="60" as="geometry" />
        </mxCell>
        <mxCell id="xHD_Jp1_6qervCOdZ8cf-8" value="Load Balancer for DB" style="rounded=1;whiteSpace=wrap;html=1;" vertex="1" parent="1">
          <mxGeometry x="414" y="380" width="120" height="60" as="geometry" />
        </mxCell>
        <mxCell id="xHD_Jp1_6qervCOdZ8cf-17" value="DB" style="shape=cylinder3;whiteSpace=wrap;html=1;boundedLbl=1;backgroundOutline=1;size=15;" vertex="1" parent="1">
          <mxGeometry x="340" y="480" width="60" height="80" as="geometry" />
        </mxCell>
        <mxCell id="xHD_Jp1_6qervCOdZ8cf-18" value="DB1" style="shape=cylinder3;whiteSpace=wrap;html=1;boundedLbl=1;backgroundOutline=1;size=15;" vertex="1" parent="1">
          <mxGeometry x="550" y="480" width="60" height="80" as="geometry" />
        </mxCell>
        <mxCell id="xHD_Jp1_6qervCOdZ8cf-23" value="" style="endArrow=classic;startArrow=classic;html=1;rounded=0;entryX=0;entryY=0.5;entryDx=0;entryDy=0;entryPerimeter=0;exitX=1;exitY=0.5;exitDx=0;exitDy=0;exitPerimeter=0;" edge="1" parent="1" source="xHD_Jp1_6qervCOdZ8cf-17" target="xHD_Jp1_6qervCOdZ8cf-18">
          <mxGeometry width="50" height="50" relative="1" as="geometry">
            <mxPoint x="440" y="545" as="sourcePoint" />
            <mxPoint x="490" y="495" as="targetPoint" />
          </mxGeometry>
        </mxCell>
        <mxCell id="xHD_Jp1_6qervCOdZ8cf-24" value="" style="endArrow=classic;html=1;rounded=0;exitX=0.675;exitY=1.05;exitDx=0;exitDy=0;exitPerimeter=0;" edge="1" parent="1" source="xHD_Jp1_6qervCOdZ8cf-8" target="xHD_Jp1_6qervCOdZ8cf-18">
          <mxGeometry width="50" height="50" relative="1" as="geometry">
            <mxPoint x="520" y="480" as="sourcePoint" />
            <mxPoint x="570" y="430" as="targetPoint" />
          </mxGeometry>
        </mxCell>
      </root>
    </mxGraphModel>
  </diagram>
</mxfile>
